<svg xmlns="http://www.w3.org/2000/svg" viewBox="0 0 1280 320" width="1280" height="320" role="img" aria-label="Grafana Rightsizing Dashboard"><clipPath id="k"><rect width="1280" height="320" rx="18"/></clipPath><g clip-path="url(#k)"><rect width="1280" height="320" fill="#14171C"/><g transform="translate(790 198)"><rect x="0" y="0" width="330" height="56" rx="3" fill="#F2C94C"/><path d="M10 0v22" stroke="#1B1B1F" stroke-width="2"/><path d="M20 0v12" stroke="#1B1B1F" stroke-width="2"/><path d="M30 0v12" stroke="#1B1B1F" stroke-width="2"/><path d="M40 0v12" stroke="#1B1B1F" stroke-width="2"/><path d="M50 0v12" stroke="#1B1B1F" stroke-width="2"/><path d="M60 0v22" stroke="#1B1B1F" stroke-width="2"/><path d="M70 0v12" stroke="#1B1B1F" stroke-width="2"/><path d="M80 0v12" stroke="#1B1B1F" stroke-width="2"/><path d="M90 0v12" stroke="#1B1B1F" stroke-width="2"/><path d="M100 0v12" stroke="#1B1B1F" stroke-width="2"/><path d="M110 0v22" stroke="#1B1B1F" stroke-width="2"/><path d="M120 0v12" stroke="#1B1B1F" stroke-width="2"/><path d="M130 0v12" stroke="#1B1B1F" stroke-width="2"/><path d="M140 0v12" stroke="#1B1B1F" stroke-width="2"/><path d="M150 0v12" stroke="#1B1B1F" stroke-width="2"/><path d="M160 0v22" stroke="#1B1B1F" stroke-width="2"/><path d="M170 0v12" stroke="#1B1B1F" stroke-width="2"/><path d="M180 0v12" stroke="#1B1B1F" stroke-width="2"/><path d="M190 0v12" stroke="#1B1B1F" stroke-width="2"/><path d="M200 0v12" stroke="#1B1B1F" stroke-width="2"/><path d="M210 0v22" stroke="#1B1B1F" stroke-width="2"/><path d="M220 0v12" stroke="#1B1B1F" stroke-width="2"/><path d="M230 0v12" stroke="#1B1B1F" stroke-width="2"/><path d="M240 0v12" stroke="#1B1B1F" stroke-width="2"/><path d="M250 0v12" stroke="#1B1B1F" stroke-width="2"/><path d="M260 0v22" stroke="#1B1B1F" stroke-width="2"/><path d="M270 0v12" stroke="#1B1B1F" stroke-width="2"/><path d="M280 0v12" stroke="#1B1B1F" stroke-width="2"/><path d="M290 0v12" stroke="#1B1B1F" stroke-width="2"/><path d="M300 0v12" stroke="#1B1B1F" stroke-width="2"/><path d="M310 0v22" stroke="#1B1B1F" stroke-width="2"/><path d="M320 0v12" stroke="#1B1B1F" stroke-width="2"/><path d="M330 0v12" stroke="#1B1B1F" stroke-width="2"/><path fill="#1B1B1F"  d="m63.6 36.7l0-1.9-6.3 0-1.1 6.2 2 0q.4-.5 .8-.7 .3-.2 1-.2 .4 0 .8 .2 .3 .1 .6 .4 .2 .3 .4 .7 .1 .4 .1 .8 0 .4-.1 .8-.2 .4-.4 .7-.3 .3-.6 .5-.4 .2-.8 .2-.8 0-1.3-.5-.5-.5-.6-1.2l-2.3 0q.1 .9 .4 1.5 .3 .7 .9 1.1 .6 .5 1.3 .7 .8 .2 1.6 .2 .8 0 1.6-.3 .8-.3 1.3-.8 .6-.6 .9-1.3 .4-.7 .4-1.6 0-.8-.3-1.5-.2-.7-.6-1.2-.5-.5-1.1-.8-.7-.3-1.5-.3-.7 0-1.2 .2-.5 .2-1 .6l0 0 .4-2.5z"/><path fill="#1B1B1F"  d="m107.4 46l0-11.2-1.8 0q-.1 .6-.4 1.1-.3 .4-.8 .7-.4 .2-1 .3-.5 .1-1.1 .1l0 1.7 2.8 0 0 7.3zm5.2-5.6q0-.3 0-.7 0-.5 .1-.9 0-.4 .1-.8 .1-.5 .3-.8 .2-.3 .6-.5 .3-.3 .7-.3 .5 0 .8 .3 .3 .2 .5 .5 .3 .3 .4 .8 .1 .4 .1 .8 .1 .4 .1 .9 0 .4 0 .7 0 .4 0 1.1-.1 .7-.2 1.3-.2 .7-.6 1.1-.4 .5-1.1 .5-.7 0-1-.5-.4-.4-.6-1.1-.1-.6-.2-1.3 0-.7 0-1.1zm-2.3 0q0 1.6 .4 2.8 .3 1.1 .9 1.8 .5 .6 1.3 .9 .7 .3 1.5 .3 .9 0 1.6-.3 .8-.3 1.3-.9 .6-.7 .9-1.8 .4-1.2 .4-2.8 0-1.7-.4-2.8-.3-1.1-.9-1.8-.5-.6-1.3-.9-.7-.3-1.6-.3-.8 0-1.5 .3-.8 .3-1.3 .9-.6 .7-.9 1.8-.4 1.1-.4 2.8z"/><path fill="#1B1B1F"  d="m157.4 46l0-11.2-1.8 0q-.1 .6-.4 1.1-.3 .4-.8 .7-.4 .2-1 .3-.5 .1-1.1 .1l0 1.7 2.8 0 0 7.3zm10.6-9.3l0-1.9-6.3 0-1.1 6.2 2.1 0q.3-.5 .7-.7 .4-.2 1-.2 .5 0 .8 .2 .4 .1 .6 .4 .3 .3 .4 .7 .1 .4 .1 .8 0 .4-.1 .8-.1 .4-.4 .7-.2 .3-.6 .5-.4 .2-.8 .2-.8 0-1.3-.5-.5-.5-.5-1.2l-2.3 0q0 .9 .3 1.5 .4 .7 1 1.1 .5 .5 1.3 .7 .7 .2 1.5 .2 .9 0 1.6-.3 .8-.3 1.4-.8 .5-.6 .9-1.3 .3-.7 .3-1.6 0-.8-.2-1.5-.3-.7-.7-1.2-.4-.5-1.1-.8-.6-.3-1.4-.3-.7 0-1.2 .2-.6 .2-1 .6l-.1 0 .5-2.5z"/><path fill="#1B1B1F"  d="m201.7 39.1l2.2 0q0-.4 .1-.9 0-.5 .3-.8 .2-.4 .5-.6 .4-.3 .8-.3 .8 0 1.3 .5 .4 .4 .4 1.3 0 .5-.2 .9-.2 .4-.6 .7-.3 .3-.7 .6-.5 .2-.8 .5-.7 .5-1.4 1-.6 .4-1.1 1-.5 .6-.8 1.3-.3 .7-.3 1.7l8.3 0 0-2-5.3 0q.4-.5 .9-1 .6-.4 1.1-.8 .6-.3 1.2-.7 .6-.4 1-.9 .5-.5 .7-1.1 .3-.6 .3-1.4 0-.8-.3-1.5-.3-.6-.9-1.1-.5-.4-1.2-.7-.7-.2-1.4-.2-1 0-1.8 .3-.8 .4-1.3 1-.5 .6-.8 1.4-.2 .8-.2 1.8zm10.9 1.3q0-.3 0-.7 0-.5 .1-.9 0-.4 .1-.8 .1-.5 .3-.8 .2-.3 .6-.5 .3-.3 .7-.3 .5 0 .8 .3 .3 .2 .5 .5 .3 .3 .4 .8 .1 .4 .1 .8 .1 .4 .1 .9 0 .4 0 .7 0 .4 0 1.1-.1 .7-.2 1.3-.2 .7-.6 1.1-.4 .5-1.1 .5-.7 0-1-.5-.4-.4-.6-1.1-.1-.6-.2-1.3 0-.7 0-1.1zm-2.3 0q0 1.6 .4 2.8 .3 1.1 .9 1.8 .5 .6 1.3 .9 .7 .3 1.5 .3 .9 0 1.6-.3 .8-.3 1.3-.9 .6-.7 .9-1.8 .4-1.2 .4-2.8 0-1.7-.4-2.8-.3-1.1-.9-1.8-.5-.6-1.3-.9-.7-.3-1.6-.3-.8 0-1.5 .3-.8 .3-1.3 .9-.6 .7-.9 1.8-.4 1.1-.4 2.8z"/><path fill="#1B1B1F"  d="m251.7 39.1l2.2 0q0-.4 .1-.9 0-.5 .3-.8 .2-.4 .5-.6 .4-.3 .8-.3 .8 0 1.3 .5 .4 .4 .4 1.3 0 .5-.2 .9-.2 .4-.6 .7-.3 .3-.7 .6-.5 .2-.8 .5-.7 .5-1.4 1-.6 .4-1.1 1-.5 .6-.8 1.3-.3 .7-.3 1.7l8.3 0 0-2-5.3 0q.4-.5 .9-1 .6-.4 1.1-.8 .6-.3 1.2-.7 .6-.4 1-.9 .5-.5 .7-1.1 .3-.6 .3-1.4 0-.8-.3-1.5-.3-.6-.9-1.1-.5-.4-1.2-.7-.7-.2-1.4-.2-1 0-1.8 .3-.8 .4-1.3 1-.5 .6-.8 1.4-.2 .8-.2 1.8zm16.3-2.4l0-1.9-6.3 0-1.1 6.2 2.1 0q.3-.5 .7-.7 .4-.2 1-.2 .5 0 .8 .2 .4 .1 .6 .4 .3 .3 .4 .7 .1 .4 .1 .8 0 .4-.1 .8-.1 .4-.4 .7-.2 .3-.6 .5-.4 .2-.8 .2-.8 0-1.3-.5-.5-.5-.5-1.2l-2.3 0q0 .9 .3 1.5 .4 .7 1 1.1 .5 .5 1.3 .7 .7 .2 1.5 .2 .9 0 1.6-.3 .8-.3 1.4-.8 .5-.6 .9-1.3 .3-.7 .3-1.6 0-.8-.2-1.5-.3-.7-.7-1.2-.4-.5-1.1-.8-.6-.3-1.4-.3-.7 0-1.2 .2-.6 .2-1 .6l-.1 0 .5-2.5z"/><rect x="-12" y="-3" width="14" height="62" rx="2" fill="#B8B8BE"/></g><circle cx="1150" cy="176" r="78" fill="#F2C94C"/><circle cx="1150" cy="176" r="60" fill="#E0B53A"/><circle cx="1150" cy="176" r="16" fill="#14171C"/><circle cx="1150" cy="176" r="30" fill="none" stroke="#C99E2A" stroke-width="2"/><circle cx="1150" cy="176" r="40" fill="none" stroke="#C99E2A" stroke-width="2"/><circle cx="1150" cy="176" r="50" fill="none" stroke="#C99E2A" stroke-width="2"/><path fill="#F46800"  d="m93.5 102.5l.5 1.5 2 0 0-7.5-6 0 0 2 3 0q0 1.5-1 2.5-.5 .5-2 .5-1.5 0-2 0-1-.5-1-1.5-.5-.5-1-1.5 0-.5 0-1.5 0-1 0-2 .5-1 1-1.5 0-.5 1-1 .5-.5 2-.5 1 0 1.5 .5 1 .5 1.5 2l3 0q-.5-1.5-1-2-.5-1-1-2-1-.5-2-1-1 0-2 0-2 0-3 .5-1.5 .5-2.5 1.5-1 1-1.5 2.5 0 1.5 0 3 0 1.5 0 3 .5 1 1.5 2 1 1 2.5 2 1 .5 3 .5 1 0 2-.5 1-.5 1.5-1.5zm13-6.5l0-4 3.5 0q1 0 2 .5 .5 .5 .5 1.5 0 1-.5 1.5-1 .5-2 .5zm-3-6.5l0 14.5 3 0 0-5.5 3.5 0q1 0 1.5 .5 .5 .5 .5 1.5 .5 1 .5 2 0 1 0 1.5l3.5 0q-.5-.5-.5-.5 0-.5 0-1 0-.5 0-1 0-.5 0-1-.5-.5-.5-1 0-.5 0-1-.5-.5-1-.5 0-.5-1-.5l0-.5q1.5 0 2-1 .5-1 .5-2.5 0-.5-.5-1.5 0-.5-.5-1-.5-.5-1.5-1-1-.5-1.5-.5zm23 9l2-5.5 0 0 2 5.5zm.5-9l-5.5 14.5 3 0 1.5-3 5 0 1 3 3.5 0-5.5-14.5zm14.5 0l0 14.5 3.5 0 0-6 6 0 0-2.5-6 0 0-3 6.5 0 0-3zm20.5 9l2-5.5 0 0 2 5.5zm.5-9l-5.5 14.5 3 0 1.5-3 5 0 1.5 3 3 0-5.5-14.5zm15 0l0 14.5 2.5 0 0-9.5 0 0 6 9.5 3.5 0 0-14.5-3 0 0 10 0 0-6-10zm23 9l2-5.5 0 0 2 5.5zm.5-9l-5.5 14.5 3 0 1.5-3 5 0 1.5 3 3 0-5.5-14.5z"/><path fill="#F0F1F3"  d="m94 152l0-13 11 0q3 0 5 2 1 1 1 4 0 4-1 5-2 2-5 2zm-10-20l0 44 10 0 0-17 10 0q3 0 5 1 2 2 2 5 0 3 1 6 0 3 1 5l9 0q0-1-1-2 0-2 0-3 0-2 0-3 0-1 0-2-1-2-1-4 0-2-1-3-1-1-2-2-1-1-3-2l0 0q4-1 5-4 2-3 2-7 0-3-1-5-1-2-2-4-2-1-4-2-3-1-6-1zm53 7l0-7-9 0 0 7zm-9 5l0 32 9 0 0-32zm31 24q-2 0-3 0-2-1-3-3 0-1-1-3 0-1 0-3 0-2 0-4 1-1 2-3 1-1 2-2 1 0 3 0 2 0 4 1 1 0 2 2 1 1 1 3 1 2 1 4 0 1-1 3 0 1-1 3-1 1-3 2-1 0-3 0zm16 6l0-30-8 0 0 4-1 0q-1-3-4-4-2-1-5-1-3 0-6 1-3 2-4 4-2 2-3 5-1 3-1 6 0 3 1 6 1 3 2 5 2 3 5 4 2 1 6 1 3 0 5-1 3-1 4-4l1 0 0 4q0 4-2 6-2 2-6 2-2 0-4-1-1-1-2-3l-9 0q0 3 2 4 1 2 3 4 2 1 5 2 2 0 4 0 6 0 9-1 3-2 5-4 2-2 2-5 1-2 1-4zm7-42l0 44 9 0 0-17q0-5 1-7 2-2 6-2 3 0 4 2 1 2 1 6l0 18 9 0 0-20q0-3 0-5-1-3-2-4-2-2-4-3-2-1-6-1-2 0-5 1-2 2-4 4l0 0 0-16zm48 12l0-10-9 0 0 10-5 0 0 6 5 0 0 19q0 2 1 4 1 1 2 2 2 1 3 1 2 0 4 0 2 0 3 0 1 0 2 0l0-7q0 0-1 0-1 0-1 0-3 0-3 0-1-1-1-3l0-16 6 0 0-6zm17 22l-8 0q0 3 1 5 2 2 4 3 2 2 5 2 2 1 5 1 3 0 5-1 3 0 5-2 2-1 3-3 2-2 2-5 0-3-1-4-1-2-2-3-2-1-4-1-2-1-3-1-2-1-4-1-2 0-3-1-2 0-3-1 0-1 0-2 0-1 0-2 1 0 1-1 1 0 2 0 1 0 1 0 3 0 5 1 1 1 1 3l9 0q0-3-2-5-1-2-3-3-2-1-4-1-3-1-5-1-3 0-5 1-3 0-5 1-2 1-3 3-1 2-1 5 0 2 1 4 1 1 2 2 1 1 3 2 2 0 4 1 5 1 7 2 3 1 3 3 0 1-1 2 0 1-1 1-1 1-2 1-1 0-2 0-1 0-2 0-2-1-2-1-1-1-2-2-1-1-1-2zm36-27l0-7-9 0 0 7zm-9 5l0 32 9 0 0-32zm14 25l0 7 29 0 0-7-18 0 17-18 0-7-27 0 0 7 16 0zm43-30l0-7-9 0 0 7zm-9 5l0 32 9 0 0-32zm16 0l0 32 9 0 0-17q0-5 1-7 2-2 6-2 3 0 4 2 1 2 1 6l0 18 9 0 0-20q0-3 0-5-1-3-2-4-2-2-4-3-2-1-6-1-2 0-5 1-3 2-4 4l-1 0 0-4zm52 24q-2 0-4 0-1-1-2-3-1-1-1-3 0-1 0-3 0-2 0-4 0-1 1-3 1-1 3-2 1 0 3 0 2 0 3 1 2 0 3 2 1 1 1 3 0 2 0 4 0 1 0 3-1 1-2 3-1 1-2 2-1 0-3 0zm16 6l0-30-9 0 0 4 0 0q-1-3-4-4-2-1-5-1-4 0-6 1-3 2-5 4-1 2-2 5-1 3-1 6 0 3 1 6 0 3 2 5 2 3 4 4 3 1 7 1 2 0 5-1 3-1 4-4l0 0 0 4q0 4-1 6-2 2-6 2-2 0-4-1-2-1-2-3l-9 0q0 3 1 4 2 2 4 4 2 1 4 2 3 0 5 0 6 0 9-1 3-2 5-4 2-2 2-5 1-2 1-4zm35-6l0-28 7 0q3 0 6 1 2 1 4 3 1 2 2 5 0 2 0 6 0 3-1 6-1 2-2 4-2 1-4 2-2 1-4 1zm-10-36l0 44 19 0q5 0 9-2 4-1 6-4 3-3 4-7 1-5 1-9 0-6-1-10-2-4-5-7-2-3-6-4-4-1-8-1zm44 22q1-3 2-5 1-2 4-4 2-1 4-1 3-1 6-1 2 0 4 0 3 1 5 2 2 1 3 3 2 1 2 4l0 17q0 2 0 4 0 2 1 3l-9 0q0-1-1-2 0 0 0-1-2 2-5 3-3 1-6 1-2 0-4-1-2 0-3-1-2-2-3-3 0-2 0-5 0-2 0-4 1-2 3-3 1-1 3-2 2 0 4 0 2-1 4-1 2 0 4-1 1 0 2-1 1 0 1-2 0-1-1-2 0-1-1-1-1-1-2-1-1 0-2 0-2 0-4 1-1 1-2 4zm21 6q-1 1-2 1 0 0-1 1-1 0-2 0-1 0-2 0-1 0-2 1-1 0-2 1-1 0-1 1-1 1-1 2 0 1 1 2 0 1 1 1 1 1 2 1 1 0 2 0 2 0 4-1 1-1 2-2 1-1 1-2 0-2 0-2zm22 6l-8 0q0 3 1 5 2 2 4 3 2 2 5 2 2 1 5 1 3 0 5-1 3 0 5-2 2-1 3-3 2-2 2-5 0-3-1-4-1-2-3-3-1-1-3-1-2-1-4-1-1-1-3-1-2 0-3-1-2 0-3-1-1-1-1-2 0-1 1-2 0 0 1-1 1 0 2 0 1 0 1 0 3 0 4 1 2 1 2 3l9 0q-1-3-2-5-1-2-3-3-2-1-4-1-3-1-5-1-3 0-5 1-3 0-5 1-2 1-3 3-1 2-1 5 0 2 1 4 0 1 2 2 1 1 3 2 2 0 4 1 5 1 7 2 3 1 3 3 0 1-1 2 0 1-1 1-1 1-2 1-1 0-2 0-1 0-2 0-2-1-3-1-1-1-1-2-1-1-1-2zm27-34l0 44 9 0 0-17q0-5 1-7 2-2 5-2 4 0 5 2 1 2 1 6l0 18 9 0 0-20q0-3-1-5 0-3-2-4-1-2-3-3-2-1-6-1-2 0-5 1-3 2-4 4l0 0 0-16zm60 28q0 2 0 4-1 2-2 3-1 2-2 2-2 1-3 1-2 0-4-1-1 0-2-2-1-1-2-3 0-2 0-4 0-2 0-4 1-2 2-3 1-2 2-2 2-1 4-1 1 0 3 1 1 0 2 2 1 1 2 3 0 2 0 4zm-23-28l0 44 8 0 0-4 0 0q1 3 4 4 3 1 7 1 2 0 4-1 3-1 5-3 1-2 3-5 1-4 1-8 0-4-1-8-2-3-3-5-2-2-5-3-2-1-4-1-3 0-6 1-3 1-5 4l0 0 0-16zm45 28q0-2 1-4 0-2 1-3 1-1 2-2 2-1 4-1 2 0 4 1 1 1 2 2 1 1 1 3 1 2 1 4 0 2-1 4 0 2-1 3-1 1-2 2-2 1-4 1-2 0-4-1-1-1-2-2-1-1-1-3-1-2-1-4zm-9 0q0 4 2 7 1 3 3 5 2 2 5 4 3 1 7 1 4 0 7-1 3-2 5-4 2-2 3-5 2-3 2-7 0-4-2-7-1-3-3-5-2-3-5-4-3-1-7-1-4 0-7 1-3 1-5 4-2 2-3 5-2 3-2 7zm39-6q0-3 1-5 2-2 4-4 2-1 5-1 2-1 5-1 2 0 5 0 2 1 4 2 2 1 4 3 1 1 1 4l0 17q0 2 0 4 1 2 1 3l-9 0q0-1 0-2 0 0 0-1-2 2-5 3-3 1-6 1-2 0-4-1-2 0-4-1-1-2-2-3-1-2-1-5 0-2 1-4 1-2 2-3 2-1 4-2 2 0 4 0 2-1 4-1 2 0 3-1 2 0 2-1 1 0 1-2 0-1 0-2-1-1-1-1-1-1-2-1-1 0-2 0-3 0-5 1-1 1-1 4zm20 6q0 1-1 1-1 0-2 1-1 0-2 0-1 0-2 0-1 0-2 1-1 0-2 1 0 0-1 1 0 1 0 2 0 1 0 2 1 1 1 1 1 1 2 1 1 0 2 0 3 0 4-1 2-1 2-2 1-1 1-2 0-2 0-2zm16-16l0 32 9 0 0-14q0-3 0-4 1-2 2-4 1-1 2-2 2-1 4-1 1 0 2 0 1 0 2 1l0-9q-2 0-2 0-2 0-4 1-1 0-3 1-1 1-2 2-1 1-2 3l0 0 0-6zm47 16q0 2-1 4 0 2-1 3-1 1-2 2-2 1-4 1-2 0-3-1-2-1-3-2-1-1-1-3-1-2-1-4 0-2 1-4 0-2 1-3 1-2 3-2 1-1 3-1 2 0 4 1 1 0 2 2 1 1 1 3 1 2 1 4zm0 12l0 4 8 0 0-44-9 0 0 16 0 0q-1-3-4-4-2-1-5-1-4 0-6 1-3 2-5 4-2 2-2 5-1 3-1 7 0 3 1 6 0 3 2 6 2 2 5 3 2 2 6 2 3 0 6-1 2-1 4-4z"/><path fill="#9DA3AE"  d="m95 211l2 0q0-1.5-.5-3-.5-1-1.5-1.5-1-1-2-1-1.5-.5-2.5-.5-1.5 0-2.5 .5-1.5 0-2.5 1-1 .5-1.5 1.5-.5 1-.5 2.5 0 1 .5 2 .5 1 1.5 1.5 .5 .5 2 1 1 0 2 .5 1 0 2 .5 1 0 2 .5 1 .5 1.5 1 .5 .5 .5 1.5 0 1-.5 1.5-.5 1-1 1-1 .5-1.5 .5-1 .5-2 .5-1 0-2-.5-1 0-1.5-.5-1-.5-1-1.5-.5-1-.5-2l-2.5 0q0 1.5 .5 3 .5 1 1.5 2 1.5 .5 2.5 1 1.5 .5 3 .5 1.5 0 2.5-.5 1.5 0 2.5-1 1-.5 1.5-1.5 1-1 1-2.5 0-1.5-.5-2.5-.5-1-1.5-1.5-1-.5-2-1-1 0-2-.5-1 0-2-.5-1.5 0-2-.5-1-.5-1.5-1-.5-.5-.5-1.5 0-.5 .5-1.5 0-.5 1-.5 .5-.5 1-1 1 0 1.5 0 2 0 3.5 1 1 1 1.5 3zm5.5-.5l0 18.5 2.5 0 0-7 0 0q0 1 .5 1 1 .5 1.5 1 .5 0 1 0 .5 .5 1 .5 1.5 0 3-1 1-.5 2-1.5 .5-.5 1-2 .5-1.5 .5-2.5 0-1.5-.5-3-.5-1-1-2-1-1-2-1.5-1.5-1-3-1-1.5 0-2.5 1-1 .5-1.5 1.5l0 0 0-2zm10.5 6.5q0 1 0 2-.5 1-1 2-.5 .5-1 1-1 .5-2 .5-1 0-2-.5-1-.5-1.5-1-.5-1-.5-2-.5-.5-.5-1.5 0-1 .5-2 0-1 .5-1.5 .5-1 1.5-1.5 .5-.5 2-.5 1 0 1.5 .5 1 .5 1.5 1 .5 1 .5 2 .5 .5 .5 1.5zm6.5 .5q0-1.5 .5-2.5 0-1 1-1.5 .5-.5 1-1 1-.5 1.5-.5 1 0 2 .5 .5 .5 1 1 1 .5 1 1.5 .5 1 .5 2.5 0 1-.5 2 0 1-1 1.5-.5 .5-1 1-1 .5-2 .5-.5 0-1.5-.5-.5-.5-1-1-1-.5-1-1.5-.5-1-.5-2zm-2.5 0q0 1.5 .5 2.5 .5 1.5 1.5 2.5 .5 .5 2 1.5 1 .5 2.5 .5 2 0 3-.5 1.5-1 2-1.5 1-1 1.5-2.5 .5-1 .5-2.5 0-1.5-.5-3-.5-1.5-1.5-2-.5-1-2-1.5-1-1-3-1-1.5 0-2.5 1-1.5 .5-2 1.5-1 .5-1.5 2-.5 1.5-.5 3zm19-7l0-4-2.5 0 0 4-2 0 0 2 2 0 0 8.5q0 1 .5 1.5 0 .5 .5 1 .5 .5 1 .5 .5 0 1.5 0l1.5 0 0-2-1 0q-.5 0-1 0 0 0-.5 0 0-.5 0-.5 0-.5 0-.5l0-8.5 2.5 0 0-2zm25.5 13.5l4.5-13.5-2.5 0-3 11 0 0-3-11-2 0-3 11 0 0-3-11-2.5 0 4.5 13.5 2.5 0 2.5-10.5 0 0 2.5 10.5zm6.5-18.5l0 18.5 2 0 0-7.5q0-1 .5-2 0-.5 .5-1 .5-.5 1.5-1 .5-.5 1.5-.5 1.5 0 2 1 1 .5 1 2l0 9 2 0 0-9q0-1 0-2-.5-.5-1-1.5-.5-.5-1.5-1-.5-.5-2-.5-.5 0-1.5 .5-.5 0-1 .5-.5 0-1 .5-.5 .5-1 1l0 0 0-7zm26.5 18.5q-.5 .5-1.5 .5-1 0-1.5-.5-.5-.5-.5-2-1 1.5-2 2-1.5 .5-3 .5-1 0-1.5-.5-1 0-1.5-.5-.5-.5-1-1-.5-1-.5-2 0-1 .5-2 .5-.5 1-1 1-.5 1.5-.5 1-.5 2-.5 .5-.5 1.5-.5 1 0 1.5 0 .5-.5 1-.5 .5-.5 .5-1 0-1-.5-1-.5-.5-.5-1-.5 0-1 0-.5-.5-1-.5-1.5 0-2.5 .5-1 1-1 2l-2.5 0q.5-1 .5-2 .5-.5 1.5-1.5 1-.5 2-.5 1-.5 2-.5 1 0 1.5 .5 1 0 2 .5 .5 .5 1 1 .5 1 .5 2l0 7q0 .5 0 1 0 .5 .5 .5 .5 0 1-.5zm-3.5-7q-.5 .5-1.5 .5-.5 0-1.5 0-.5 .5-1 .5-1 0-1.5 .5-.5 0-1 .5-.5 .5-.5 1.5 0 .5 .5 1 0 0 .5 .5 0 0 .5 .5 .5 0 1 0 1 0 2-.5 1 0 1.5-.5 .5-.5 .5-1 .5-.5 .5-1zm8.5-6.5l0-4-2 0 0 4-2.5 0 0 2 2.5 0 0 8.5q0 1 0 1.5 0 .5 .5 1 .5 .5 1 .5 .5 0 1.5 0l1.5 0 0-2-1 0q-.5 0-.5 0-.5 0-.5 0-.5-.5-.5-.5 0-.5 0-.5l0-8.5 2.5 0 0-2zm17.5 15.5q-.5 1-.5 1.5-.5 .5-1 1-.5 .5-1 .5-.5 .5-1.5 .5 0 0-.5 0-.5 0-1-.5l0-2q.5 0 1 .5 0 0 .5 0 .5 0 1-.5 .5 0 1-1l.5-2-5-13.5 2.5 0 4 11 0 0 3.5-11 2.5 0zm9.5-8.5q0-1.5 .5-2.5 0-1 .5-1.5 .5-.5 1.5-1 1-.5 1.5-.5 1 0 1.5 .5 1 .5 1.5 1 .5 .5 1 1.5 .5 1 .5 2.5 0 1-.5 2-.5 1-1 1.5-.5 .5-1.5 1-.5 .5-1.5 .5-.5 0-1.5-.5-1-.5-1.5-1-.5-.5-.5-1.5-.5-1-.5-2zm-2.5 0q0 1.5 .5 2.5 .5 1.5 1.5 2.5 .5 .5 2 1.5 1 .5 2.5 .5 1.5 0 3-.5 1-1 2-1.5 1-1 1-2.5 .5-1 .5-2.5 0-1.5-.5-3 0-1.5-1-2-1-1-2-1.5-1.5-1-3-1-1.5 0-2.5 1-1.5 .5-2 1.5-1 .5-1.5 2-.5 1.5-.5 3zm27 6.5l0-13.5-2.5 0 0 7.5q0 1 0 2-.5 .5-1 1-.5 .5-1 1-1 .5-2 .5-1 0-2-1-.5-.5-.5-2l0-9-2.5 0 0 9q0 1 .5 2 0 1 .5 1.5 1 .5 1.5 1 1 .5 2.5 .5 1.5 0 2.5-1 1-.5 1.5-1.5l.5 0 0 2zm3-13.5l0 13.5 2.5 0 0-6q0-1.5 0-2.5 .5-1 1-1.5 .5-.5 1.5-1 1-.5 2-.5l0-2.5q-1.5 0-3 1-1 1-2 2.5l0 0 0-3zm16 0l0 18.5 2.5 0 0-7 0 0q.5 1 1 1 .5 .5 1 1 .5 0 1 0 1 .5 1.5 .5 1.5 0 2.5-1 1-.5 2-1.5 .5-.5 1-2 .5-1.5 .5-2.5 0-1.5-.5-3-.5-1-1-2-1-1-2-1.5-1-1-3-1-1 0-2.5 1-1 .5-1.5 1.5l0 0 0-2zm10.5 6.5q0 1 0 2-.5 1-1 2-.5 .5-1 1-1 .5-2 .5-1 0-2-.5-.5-.5-1-1-.5-1-1-2 0-.5 0-1.5 0-1 0-2 0-1 .5-1.5 .5-1 1.5-1.5 1-.5 2-.5 1 0 2 .5 .5 .5 1 1 .5 1 1 2 0 .5 0 1.5zm6.5 .5q0-1.5 .5-2.5 .5-1 1-1.5 .5-.5 1-1 1-.5 2-.5 .5 0 1.5 .5 .5 .5 1.5 1 .5 .5 .5 1.5 .5 1 .5 2.5 0 1-.5 2 0 1-.5 1.5-1 .5-1.5 1-1 .5-1.5 .5-1 0-2-.5-.5-.5-1-1-.5-.5-1-1.5-.5-1-.5-2zm-2 0q0 1.5 0 2.5 .5 1.5 1.5 2.5 1 .5 2 1.5 1 .5 3 .5 1.5 0 2.5-.5 1.5-1 2-1.5 1-1 1.5-2.5 .5-1 .5-2.5 0-1.5-.5-3-.5-1.5-1.5-2-.5-1-2-1.5-1-1-2.5-1-2 0-3 1-1 .5-2 1.5-1 .5-1.5 2 0 1.5 0 3zm17 0q0-1 0-2 .5-1 1-1.5 .5-1 1-1.5 1-.5 2-.5 1 0 2 .5 1 .5 1.5 1.5 .5 .5 .5 1.5 .5 1 .5 2 0 .5-.5 1.5 0 1-.5 2-.5 .5-1.5 1-.5 .5-2 .5-1 0-1.5-.5-1-.5-1.5-1-.5-1-.5-2-.5-.5-.5-1.5zm10.5 6.5l0-18.5-2.5 0 0 7 0 0q0-.5-.5-1-1-.5-1.5-1-.5 0-1 0-.5-.5-1-.5-1.5 0-3 1-1 .5-2 1.5-.5 1-1 2-.5 1.5-.5 2.5 0 1.5 .5 3 .5 1 1 2 1 1 2 1.5 1.5 1 3 1 1.5 0 2.5-.5 1-.5 1.5-2l0 0 0 2zm4.5-4l-2 0q0 1 .5 2 .5 1 1.5 1.5 .5 .5 1.5 .5 1 .5 2 .5 1 0 2-.5 1 0 2-.5 1-.5 1.5-1.5 .5-.5 .5-2 0-1-.5-1.5-.5-.5-1-1-.5-.5-1.5-1-.5 0-1.5 0-1-.5-1.5-.5-1-.5-1.5-.5-.5-.5-1-.5-.5-.5-.5-1 0-.5 .5-1 0-.5 .5-.5 .5 0 1 0 .5-.5 1-.5 .5 0 1 .5 .5 0 1 0 .5 .5 1 1 0 .5 0 1l2.5 0q-.5-1.5-.5-2-.5-1-1.5-1.5-.5-.5-1.5-.5-1-.5-2-.5-1 0-2 .5-1 0-1.5 .5-1 .5-1.5 1.5 0 .5 0 1.5 0 1.5 .5 2 .5 1 1.5 1 1 .5 2 1 1.5 0 2.5 .5 1 0 1.5 .5 .5 .5 .5 1.5 0 .5-.5 1 0 .5-.5 .5-.5 0-1 .5-.5 0-1 0-1 0-1.5-.5-.5 0-1 0-.5-.5-1-1-.5-.5-.5-1zm19-9.5l0 13.5 2 0 0-6q0-1.5 .5-2.5 0-1 1-1.5 .5-.5 1.5-1 .5-.5 2-.5l0-2.5q-1.5 0-3 1-1 1-2 2.5l0 0 0-3zm18 5.5l-7.5 0q0-1 0-1.5 .5-.5 1-1 .5-.5 1-1 1-.5 1.5-.5 1 0 1.5 .5 1 .5 1.5 1 .5 .5 .5 1 .5 .5 .5 1.5zm2 3.5l-2 0q-.5 1.5-1 2-1 1-2.5 1-1 0-2-.5-.5-.5-1-1-.5-.5-1-1.5 0-.5 0-1.5l10 0q0-1.5-.5-2.5 0-1.5-1-2.5-.5-1.5-1.5-2-1.5-1-3-1-1.5 0-2.5 1-1.5 .5-2 1-1 1-1.5 2.5-.5 1-.5 2.5 0 2 .5 3 .5 1.5 1 2.5 1 .5 2 1.5 1.5 .5 3 .5 2 0 3.5-1.5 2-1 2-3.5zm4 .5l-2 0q0 1 .5 2 .5 1 1 1.5 1 .5 2 .5 1 .5 2 .5 1 0 2-.5 1 0 2-.5 .5-.5 1-1.5 .5-.5 .5-2 0-1 0-1.5-.5-.5-1-1-.5-.5-1.5-1-1 0-1.5 0-1-.5-1.5-.5-1-.5-1.5-.5-.5-.5-1-.5-.5-.5-.5-1 0-.5 0-1 .5-.5 1-.5 .5 0 1 0 .5-.5 1-.5 .5 0 1 .5 .5 0 1 0 .5 .5 .5 1 .5 .5 .5 1l2 0q0-1.5-.5-2-.5-1-1-1.5-1-.5-2-.5-.5-.5-2-.5-.5 0-1.5 .5-1 0-2 .5-.5 .5-1 1.5-.5 .5-.5 1.5 0 1.5 1 2 .5 1 1.5 1 1 .5 2 1 1 0 2 .5 1 0 2 .5 .5 .5 .5 1.5 0 .5-.5 1 0 .5-.5 .5-.5 0-1.5 .5-.5 0-1 0-.5 0-1-.5-1 0-1.5 0-.5-.5-.5-1-.5-.5-.5-1zm21-4l-7.5 0q0-1 0-1.5 .5-.5 1-1 .5-.5 1-1 1-.5 1.5-.5 1 0 1.5 .5 1 .5 1.5 1 .5 .5 .5 1 .5 .5 .5 1.5zm2 3.5l-2 0q-.5 1.5-1 2-1 1-2.5 1-1 0-2-.5-.5-.5-1-1-1-.5-1-1.5 0-.5 0-1.5l10 0q0-1.5-.5-2.5 0-1.5-1-2.5-.5-1.5-1.5-2-1.5-1-3-1-1.5 0-3 1-1 .5-2 1-.5 1-1 2.5-.5 1-.5 2.5 0 2 .5 3 .5 1.5 1 2.5 1 .5 2 1.5 1.5 .5 3 .5 2 0 3.5-1.5 1.5-1 2-3.5zm2.5-9l0 13.5 2.5 0 0-6q0-1.5 0-2.5 .5-1 1-1.5 .5-.5 1.5-1 1-.5 2-.5l0-2.5q-1.5 0-3 1-1 1-2 2.5l0 0 0-3zm15 13.5l5-13.5-2.5 0-3.5 11.5-.5 0-3.5-11.5-2.5 0 5 13.5zm16-8l-7.5 0q0-1 .5-1.5 0-.5 .5-1 .5-.5 1-1 1-.5 2-.5 .5 0 1.5 .5 .5 .5 1 1 .5 .5 1 1 0 .5 0 1.5zm2.5 3.5l-2.5 0q0 1.5-1 2-1 1-2.5 1-1 0-2-.5-.5-.5-1-1-.5-.5-1-1.5 0-.5 0-1.5l10 0q0-1.5 0-2.5-.5-1.5-1-2.5-1-1.5-2-2-1.5-1-3-1-1.5 0-2.5 1-1.5 .5-2 1-1 1-1.5 2.5-.5 1-.5 2.5 0 2 .5 3 .5 1.5 1 2.5 1 .5 2 1.5 1.5 .5 3 .5 2.5 0 4-1.5 1.5-1 2-3.5zm9.5-14l0 18.5 2.5 0 0-2 0 0q0 1 .5 1 1 .5 1.5 1 .5 0 1 0 .5 .5 1 .5 1.5 0 3-1 1-.5 2-1.5 .5-.5 1-2 .5-1.5 .5-2.5 0-1.5-.5-3-.5-1-1-2-1-1-2-1.5-1.5-1-3-1-1.5 0-2.5 1-1 .5-1.5 1.5l0 0 0-7zm10.5 11.5q0 1 0 2-.5 1-1 2-.5 .5-1 1-1 .5-2 .5-1 0-2-.5-1-.5-1.5-1-.5-1-.5-2-.5-.5-.5-1.5 0-1 .5-2 0-1 .5-1.5 .5-1 1.5-1.5 .5-.5 2-.5 1 0 1.5 .5 1 .5 1.5 1 .5 1 .5 2 .5 .5 .5 1.5zm16 7l0-13.5-2 0 0 7.5q0 1-.5 2 0 .5-.5 1-.5 .5-1.5 1-.5 .5-1.5 .5-1.5 0-2-1-1-.5-1-2l0-9-2 0 0 9q0 1 0 2 .5 1 1 1.5 .5 .5 1.5 1 .5 .5 2 .5 1.5 0 2.5-1 1-.5 2-1.5l0 0 0 2zm6.5-13.5l0-4-2.5 0 0 4-2 0 0 2 2 0 0 8.5q0 1 .5 1.5 0 .5 .5 1 .5 .5 1 .5 .5 0 1.5 0l1.5 0 0-2-1 0q-.5 0-.5 0-.5 0-.5 0-.5-.5-.5-.5 0-.5 0-.5l0-8.5 2.5 0 0-2zm12.5 0l0 13.5 2 0 0-7.5q0-1 0-2 .5-.5 1-1 .5-.5 1-1 1-.5 2-.5 1.5 0 2 1 .5 .5 .5 2l0 9 2.5 0 0-9q0-1-.5-2 0-.5-.5-1.5-.5-.5-1.5-1-1-.5-2-.5-3 0-4.5 2.5l0 0 0-2zm23.5 5.5l-7.5 0q0-1 0-1.5 .5-.5 1-1 .5-.5 1-1 1-.5 1.5-.5 1 0 1.5 .5 1 .5 1.5 1 .5 .5 .5 1 .5 .5 .5 1.5zm2 3.5l-2 0q-.5 1.5-1 2-1 1-2.5 1-1 0-2-.5-.5-.5-1-1-.5-.5-1-1.5 0-.5 0-1.5l10 0q0-1.5-.5-2.5 0-1.5-1-2.5-.5-1.5-1.5-2-1.5-1-3-1-1.5 0-2.5 1-1.5 .5-2 1-1 1-1.5 2.5-.5 1-.5 2.5 0 2 .5 3 .5 1.5 1 2.5 1 .5 2 1.5 1.5 .5 3 .5 2.5 0 4-1.5 1.5-1 1.5-3.5zm9 4.5l4.5-13.5-2 0-4 11.5 0 0-3.5-11.5-2.5 0 5 13.5zm16-8l-7.5 0q0-1 0-1.5 .5-.5 1-1 .5-.5 1-1 1-.5 1.5-.5 1 0 1.5 .5 1 .5 1.5 1 .5 .5 .5 1 .5 .5 .5 1.5zm2 3.5l-2 0q-.5 1.5-1 2-1 1-2.5 1-1 0-2-.5-.5-.5-1-1-.5-.5-1-1.5 0-.5 0-1.5l10 0q0-1.5-.5-2.5 0-1.5-1-2.5-.5-1.5-1.5-2-1.5-1-3-1-1.5 0-2.5 1-1.5 .5-2 1-1 1-1.5 2.5-.5 1-.5 2.5 0 2 .5 3 .5 1.5 1 2.5 1 .5 2 1.5 1.5 .5 3 .5 2 0 3.5-1.5 1.5-1 2-3.5zm2.5-9l0 13.5 2.5 0 0-6q0-1.5 0-2.5 .5-1 1-1.5 .5-.5 1.5-1 1-.5 2-.5l0-2.5q-1.5 0-3 1-1 1-2 2.5l0 0 0-3zm27 13.5l0-13.5-2 0 0 7.5q0 1-.5 2 0 .5-.5 1-.5 .5-1 1-1 .5-2 .5-1.5 0-2-1-.5-.5-.5-2l0-9-2.5 0 0 9q0 1 .5 2 0 1 .5 1.5 .5 .5 1.5 1 1 .5 2 .5 1.5 0 3-1 1-.5 1.5-1.5l0 0 0 2zm5-4l-2.5 0q0 1 .5 2 .5 1 1.5 1.5 .5 .5 1.5 .5 1 .5 2.5 .5 1 0 2-.5 1 0 1.5-.5 1-.5 1.5-1.5 .5-.5 .5-2 0-1-.5-1.5 0-.5-1-1-.5-.5-1-1-1 0-2 0-.5-.5-1.5-.5-.5-.5-1.5-.5-.5-.5-1-.5 0-.5 0-1 0-.5 0-1 .5-.5 .5-.5 .5 0 1 0 .5-.5 1-.5 .5 0 1 .5 1 0 1 0 .5 .5 1 1 0 .5 .5 1l2 0q0-1.5-.5-2-.5-1-1-1.5-1-.5-2-.5-1-.5-2-.5-1 0-2 .5-.5 0-1.5 .5-.5 .5-1 1.5-.5 .5-.5 1.5 0 1.5 .5 2 .5 1 1.5 1 1 .5 2.5 1 1 0 2 .5 1 0 1.5 .5 .5 .5 .5 1.5 0 .5 0 1-.5 .5-1 .5-.5 0-1 .5-.5 0-1 0-.5 0-1.5-.5-.5 0-1 0-.5-.5-1-1 0-.5 0-1zm21-4l-8 0q0-1 .5-1.5 .5-.5 .5-1 .5-.5 1.5-1 .5-.5 1.5-.5 1 0 1.5 .5 .5 .5 1 1 .5 .5 1 1 .5 .5 .5 1.5zm2 3.5l-2 0q-.5 1.5-1.5 2-1 1-2 1-1.5 0-2-.5-1-.5-1.5-1-.5-.5-.5-1.5-.5-.5-.5-1.5l10 0q0-1.5 0-2.5-.5-1.5-1-2.5-.5-1.5-2-2-1-1-3-1-1.5 0-2.5 1-1 .5-2 1-1 1-1 2.5-.5 1-.5 2.5 0 2 0 3 .5 1.5 1.5 2.5 1 .5 2 1.5 1 .5 2.5 .5 2.5 0 4-1.5 1.5-1 2-3.5zm3 1.5l0 3 3 0 0-3z"/></g></svg>
